<svg width="512" height="512" viewBox="0 0 512 512" xmlns="http://www.w3.org/2000/svg">
  <defs>
    <linearGradient id="bg" x1="0%" y1="0%" x2="100%" y2="100%">
      <stop offset="0%" style="stop-color:#0f172a;stop-opacity:1" />
      <stop offset="100%" style="stop-color:#1e293b;stop-opacity:1" />
    </linearGradient>
    <radialGradient id="gold" cx="50%" cy="50%" r="50%">
      <stop offset="0%" style="stop-color:#fbbf24;stop-opacity:1" />
      <stop offset="100%" style="stop-color:#f59e0b;stop-opacity:1" />
    </radialGradient>
  </defs>
  
  <!-- Background -->
  <rect width="512" height="512" fill="url(#bg)" rx="20"/>
  
  <!-- Gold C -->
  <path d="M 150 100 L 150 400 L 200 400 L 200 350 L 200 150 L 150 150 Z" fill="url(#gold)"/>
  <path d="M 200 150 L 250 150 L 250 200 L 200 200 Z" fill="url(#gold)"/>
  <path d="M 200 300 L 250 300 L 250 350 L 200 350 Z" fill="url(#gold)"/>
  
  <!-- Laptop -->
  <rect x="280" y="200" width="120" height="80" fill="#e5e7eb" rx="8"/>
  <rect x="290" y="210" width="100" height="60" fill="#1f2937" rx="4"/>
  <rect x="300" y="220" width="80" height="40" fill="#3b82f6" rx="2"/>
  
  <!-- Graph -->
  <path d="M 300 350 L 320 340 L 340 320 L 360 300 L 380 280 L 400 260" stroke="#f97316" stroke-width="4" fill="none"/>
  <circle cx="300" cy="350" r="4" fill="#f97316"/>
  <circle cx="320" cy="340" r="4" fill="#f97316"/>
  <circle cx="340" cy="320" r="4" fill="#f97316"/>
  <circle cx="360" cy="300" r="4" fill="#f97316"/>
  <circle cx="380" cy="280" r="4" fill="#f97316"/>
  <circle cx="400" cy="260" r="4" fill="#f97316"/>
</svg>
